<?xml version="1.0" encoding="UTF-8" standalone="no"?>
<svg
   xmlns:osb="http://www.openswatchbook.org/uri/2009/osb"
   xmlns:dc="http://purl.org/dc/elements/1.1/"
   xmlns:cc="http://creativecommons.org/ns#"
   xmlns:rdf="http://www.w3.org/1999/02/22-rdf-syntax-ns#"
   xmlns:svg="http://www.w3.org/2000/svg"
   xmlns="http://www.w3.org/2000/svg"
   xmlns:sodipodi="http://sodipodi.sourceforge.net/DTD/sodipodi-0.dtd"
   xmlns:inkscape="http://www.inkscape.org/namespaces/inkscape"
   id="svg12"
   preserveAspectRatio="xMidYMid meet"
   viewBox="0 0 400.000000 400.000000"
   height="400.000000pt"
   width="400.000000pt"
   version="1.0"
   sodipodi:docname="blg2.svg"
   inkscape:version="0.92.3 (2405546, 2018-03-11)">
  <metadata
     id="metadata18">
    <rdf:RDF>
      <cc:Work
         rdf:about="">
        <dc:format>image/svg+xml</dc:format>
        <dc:type
           rdf:resource="http://purl.org/dc/dcmitype/StillImage" />
        <dc:title />
      </cc:Work>
    </rdf:RDF>
  </metadata>
  <defs
     id="defs16">
    <linearGradient
       id="linearGradient816"
       osb:paint="solid">
      <stop
         style="stop-color:#000000;stop-opacity:1;"
         offset="0"
         id="stop814" />
    </linearGradient>
  </defs>
  <g
     style="fill-opacity:1;fill-rule:nonzero;fill:#f2f2f2"
     id="g10"
     stroke="none"
     fill="#000000"
     transform="translate(0.000000,400.000000) scale(0.100000,-0.100000)">
    <path
       style="fill-opacity:1;fill-rule:nonzero;fill:#f2f2f2"
       d="m 1605,2599 c -144,-34 -210,-202 -130,-330 17,-26 78,-65 130,-84 47,-16 53,-16 109,0 166,48 223,240 106,355 -55,54 -138,76 -215,59 z m -167,775 c -7,-6 -12,-333 -5,-334 1,-1 31,-3 67,-6 142,-11 277,-54 404,-128 84,-50 217,-177 276,-265 77,-115 130,-269 145,-423 l 7,-68 h 169 169 v 58 c 0,135 -47,322 -120,477 -136,292 -401,527 -708,629 -128,43 -384,81 -404,60 z m -603,1 c -48,-17 -80,-52 -94,-103 -14,-49 -15,-3146 -1,-3171 19,-36 68,-46 225,-46 125,0 155,3 183,18 17,10 33,19 34,20 2,1 5,328 8,727 l 5,725 179,3 c 305,4 438,-34 578,-167 133,-125 177,-210 434,-845 107,-265 182,-438 195,-448 37,-31 97,-40 243,-36 175,4 200,13 204,76 3,46 -38,155 -228,602 -51,118 -108,253 -127,300 -127,309 -270,509 -431,603 -63,37 -73,52 -40,62 53,16 165,70 236,113 72,43 212,165 212,183 0,5 -126,9 -281,9 h -280 l -71,-30 c -135,-58 -175,-63 -515,-68 l -313,-4 v 565 566 l 43,3 42,3 v 175 175 l -200,2 c -152,2 -210,-1 -240,-12 z m 607,355 c 2,-113 6,-164 14,-163 23,4 212,-18 283,-34 107,-23 391,-135 391,-154 0,-5 4,-9 10,-9 18,0 165,-105 235,-167 140,-126 214,-226 336,-448 32,-58 72,-175 89,-260 7,-33 16,-69 20,-80 10,-23 18,-72 26,-172 l 7,-73 h 165 165 l -7,73 c -13,147 -41,313 -66,392 -5,17 -17,55 -26,85 -18,63 -159,356 -175,366 -6,3 -30,36 -53,73 -75,115 -235,281 -356,368 -36,26 -71,53 -78,60 -17,16 -189,113 -202,113 -5,0 -10,5 -10,10 0,6 -7,10 -15,10 -8,0 -15,4 -15,9 0,5 -10,11 -22,14 -13,3 -88,28 -168,55 -170,58 -328,90 -458,94 l -92,3 z"
       id="path8" />
  </g>
</svg>
